PathFileType	4	(X/Y/Z)	D:\TRACE\spot_10-12-23\spot_arm_motion_2_5-platform.trc
DataRate	CameraRate	NumFrames	NumMarkers	Units	OrigDataRate	OrigDataStartFrame	OrigNumFrames
100.00	100.00	      60	5	mm	100.00	3501	      7000
Frame#	Time	Left_Front			Right_Front			Left_Aft			Right_Aft			Post			
		X1	Y1	Z1	X2	Y2	Z2	X3	Y3	Z3	X4	Y4	Z4	X5	Y5	Z5	

3501	35.000	-804.50702	-52.22596	-653.12750	767.58649	-46.58901	-645.96918	-722.28424	43.88171	480.99438	695.32239	55.59280	566.87897	-21.64071	656.05347	-1036.33130	
3502	35.010	-803.70496	-51.52950	-653.05450	768.41431	-46.03593	-645.89771	-721.27863	43.49086	481.12637	696.04620	55.18620	567.05243	-20.55725	656.70905	-1035.75146	
3503	35.020	-802.83472	-50.83899	-652.97791	769.45404	-45.56666	-645.90552	-720.40594	43.12971	481.29639	697.29883	54.82101	567.24438	-19.75342	657.63464	-1034.88000	
3504	35.030	-801.89667	-50.26052	-652.70465	770.35461	-44.98372	-645.78729	-719.37012	42.66065	481.60846	698.08307	54.41435	567.34705	-18.68485	658.62164	-1034.19824	
3505	35.040	-801.15637	-49.06745	-652.54510	771.33136	-44.06539	-645.62048	-718.25824	42.22360	481.76810	699.07025	53.90216	567.50226	-17.59070	659.67084	-1033.31335	
3506	35.050	-799.98767	-48.50920	-652.57574	772.24609	-43.67078	-645.59753	-717.25836	41.79071	482.22083	700.19427	53.43651	567.72174	-16.60637	660.72021	-1032.32568	
3507	35.060	-799.21320	-48.00724	-652.23883	773.45758	-42.76905	-645.36456	-716.40759	41.40215	482.29523	701.12207	52.70010	567.91852	-15.70987	661.77838	-1031.37903	
3508	35.070	-798.08813	-47.39355	-652.14410	774.47040	-42.20769	-645.25977	-715.39215	40.98668	482.53592	701.89862	52.14645	568.11383	-14.81706	663.11292	-1030.21765	
3509	35.080	-796.96399	-46.25391	-652.23682	775.33734	-41.51134	-645.02380	-714.33759	40.49966	482.65601	703.04999	51.45139	568.27734	-14.03820	664.28864	-1029.27832	
3510	35.090	-796.04022	-45.44876	-652.04541	776.45197	-40.43529	-645.33002	-713.36359	39.85925	482.94061	704.21960	50.91895	568.55200	-12.71024	665.44623	-1028.21484	
3511	35.100	-795.11908	-44.59018	-651.72333	777.30493	-39.82711	-644.85126	-712.31091	39.35135	483.05093	705.38031	50.28372	568.95673	-11.79663	667.08759	-1027.26636	
3512	35.110	-793.89441	-43.65685	-651.68805	778.81134	-38.61018	-644.87927	-710.96698	38.46047	483.31934	706.20129	49.58065	569.18451	-10.96605	668.41748	-1026.08679	
3513	35.120	-792.79382	-43.06394	-651.49652	779.60120	-38.03219	-644.41431	-709.99847	37.98590	483.54355	707.33966	48.94859	569.48669	-9.88955	669.71417	-1024.75684	
3514	35.130	-791.99268	-41.72173	-651.32635	780.92517	-36.78651	-644.40442	-708.92133	37.33243	483.86960	708.35919	48.06878	569.81708	-8.54502	671.31342	-1023.49023	
3515	35.140	-790.93713	-40.58462	-651.20068	781.60846	-35.76519	-644.17273	-707.82477	36.70850	484.18869	709.44678	47.20068	569.96191	-7.45089	672.68506	-1022.30853	
3516	35.150	-789.59192	-40.05100	-650.96075	782.68713	-34.94918	-644.39075	-706.79309	36.14975	484.27365	710.61987	46.45739	570.16559	-6.58348	674.37830	-1021.05969	
3517	35.160	-788.56830	-38.54916	-650.82385	783.96442	-33.73404	-643.74579	-705.68671	35.49801	484.67792	711.72815	45.88921	570.55518	-5.65520	676.08844	-1019.64185	
3518	35.170	-787.50232	-37.50186	-650.58044	785.21594	-32.81496	-643.67279	-704.50818	34.65355	485.17639	712.69189	44.96317	570.90363	-4.58843	677.65717	-1018.17200	
3519	35.180	-786.52734	-36.67496	-650.34265	786.03351	-31.73399	-643.44067	-703.49988	33.68855	485.31210	713.88452	44.08334	571.30261	-3.43641	679.21228	-1016.73566	
3520	35.190	-785.14148	-35.68196	-650.26733	787.34009	-30.58169	-643.49408	-702.41272	33.08295	485.78079	714.94019	43.13338	571.51495	-2.27078	680.92493	-1015.39600	
3521	35.200	-784.12225	-34.21671	-650.03595	788.21552	-29.25154	-643.41101	-701.40039	32.45890	485.92667	716.00800	42.13945	571.86145	-1.13999	682.85498	-1014.01385	
3522	35.210	-783.13940	-33.05631	-649.84180	789.22095	-28.20491	-642.98022	-700.25049	31.55773	486.36801	717.06519	41.28553	572.04633	0.02769	684.75909	-1012.20142	
3523	35.220	-781.89484	-32.15834	-649.63269	790.91846	-26.83670	-642.63824	-699.13519	31.00217	486.68317	718.35590	40.31153	572.44000	1.28714	686.72198	-1010.86621	
3524	35.230	-780.88409	-30.64991	-649.42743	791.65820	-25.81046	-642.45685	-697.96100	30.06666	486.88657	719.47919	39.37033	572.87585	2.30862	688.55988	-1009.14655	
3525	35.240	-779.76483	-29.49545	-649.08661	792.98877	-24.35642	-642.19409	-696.85162	29.22771	487.31973	720.53888	38.46640	573.22278	3.29229	690.33478	-1007.58398	
3526	35.250	-778.70154	-28.06182	-648.94244	793.74762	-23.30330	-642.23883	-695.66724	28.30800	487.50961	721.63220	37.37054	573.68671	4.34089	692.29572	-1005.95898	
3527	35.260	-777.47644	-26.84536	-648.66998	795.01959	-21.90574	-641.77411	-694.54742	27.57393	487.99258	722.62427	36.35929	574.12341	5.59073	694.43848	-1004.06689	
3528	35.270	-776.15765	-25.57237	-648.50635	796.39380	-20.40527	-641.32916	-693.28552	26.62402	488.57004	723.85974	35.22943	574.36285	6.92780	696.46600	-1002.29517	
3529	35.280	-775.15076	-24.28291	-648.20477	797.34741	-19.30042	-641.44409	-692.36682	25.85980	488.77243	724.73761	34.27402	574.68115	7.72022	698.55853	-1000.24481	
3530	35.290	-774.02435	-22.92032	-647.98663	798.08130	-17.77736	-641.20776	-690.94440	24.61076	489.18512	725.79004	33.21836	575.09979	8.76089	700.50293	-998.69153	
3531	35.300	-773.31946	-21.24133	-647.50208	799.75531	-16.50250	-640.80237	-689.99371	24.00262	489.37766	726.80927	32.27810	575.54913	10.08933	702.59479	-996.56940	
3532	35.310	-771.83392	-20.01706	-647.25177	800.86121	-15.21624	-640.29443	-688.90979	23.03256	489.71295	727.81372	31.06382	576.04083	40.48118	661.36401	-1025.54138	
3533	35.320	-770.50055	-18.48217	-647.09619	801.88446	-13.76313	-640.05847	-687.77118	22.17667	489.96765	729.70282	30.02460	576.15161	12.30309	706.80719	-992.50055	
3534	35.330	-769.46875	-17.17847	-646.89148	803.28888	-12.15094	-639.84674	-686.52167	21.01751	490.43860	730.86987	28.98043	576.45490	13.19653	709.12079	-990.52661	
3535	35.340	-768.36847	-16.03268	-646.44934	803.91974	-10.85694	-639.80499	-685.44391	20.05827	490.68616	732.11823	27.81110	576.88861	14.52666	711.22839	-988.62756	
3536	35.350	-767.17279	-14.40372	-646.09607	805.37848	-9.40473	-639.42535	-684.44348	18.97801	491.12729	733.14594	26.76277	577.22589	15.66044	713.49188	-986.49628	
3537	35.360	-766.00647	-12.88577	-645.91400	806.44763	-7.76225	-638.90308	-683.25354	18.08940	491.75497	734.44250	25.54978	577.62189	16.83709	715.73608	-984.46161	
3538	35.370	-764.94690	-11.45491	-645.67462	807.47009	-6.35794	-638.61395	-682.08734	17.10790	492.10898	735.38947	24.39768	577.96326	25.92945	635.25555	-992.33716	
3539	35.380	-764.03143	-9.66513	-645.26617	808.67804	-4.77277	-638.21576	-681.11279	16.10999	492.31781	736.60858	22.94003	578.53271	18.64495	720.41418	-980.33685	
3540	35.390	-762.84589	-8.27348	-644.81451	809.81989	-3.18423	-638.00647	-679.91827	15.08147	492.80881	736.93048	21.23466	579.06616	20.14189	722.71552	-978.75122	
3541	35.400	-761.78192	-6.58862	-644.56158	810.65924	-1.75373	-637.67725	-678.74188	14.01296	493.21558	738.31854	19.98944	579.46191	21.21577	724.92804	-976.60382	
3542	35.410	-760.75702	-5.03668	-644.24084	811.94836	-0.25907	-637.36591	-677.71985	13.09786	493.50369	739.20300	18.93039	579.62805	22.14599	727.19421	-974.75922	
3543	35.420	-759.66241	-3.38086	-643.88184	813.05450	1.18627	-636.98145	-676.63660	11.78883	493.88895	740.37738	17.57142	580.17999	22.92330	729.39581	-972.96472	
3544	35.430	-758.57611	-1.86203	-643.54541	814.01312	2.93149	-636.76544	-675.66809	10.88595	494.22415	741.27698	16.24836	580.47809	24.28270	731.76569	-971.13824	
3545	35.440	-757.05249	-0.67402	-643.26599	815.39905	4.31595	-636.11493	-674.34454	9.73415	494.87042	742.72620	15.34363	581.03845	48.71594	687.31976	-985.53851	
3546	35.450	-756.24615	0.85328	-642.86627	816.22375	5.86482	-635.86719	-673.22736	8.79549	495.43936	743.89032	14.22399	581.30701	26.54905	736.30182	-966.90002	
3547	35.460	-755.12903	2.46512	-642.47705	817.27087	7.61625	-635.72174	-672.20172	7.66475	495.67401	745.13293	13.09877	581.48206	27.32433	738.59692	-965.03406	
3548	35.470	-754.22437	4.23574	-642.09601	818.26263	8.81086	-635.24683	-671.24731	6.65056	495.87375	745.84253	11.48666	581.90436	28.33400	740.99384	-962.86462	
3549	35.480	-753.19952	5.75709	-641.79559	819.46918	10.43163	-634.73706	-670.22137	5.55739	496.16541	747.10150	10.46997	582.40417	29.58122	743.48901	-960.65356	
3550	35.490	-751.96967	7.17020	-641.53595	820.42719	12.33575	-634.47791	-669.23859	4.33136	496.62906	748.12207	9.31402	582.77289	30.73219	745.74188	-958.41803	
3551	35.500	-751.05115	8.62756	-640.84290	821.52643	13.86586	-634.16327	-668.11975	3.34198	496.88144	749.30719	8.02410	583.17865	31.60334	748.08417	-956.19531	
3552	35.510	-750.13251	10.53437	-640.54150	822.45911	15.32675	-633.57190	-667.05414	2.05707	497.36484	750.05975	6.73292	583.49335	32.44363	750.44495	-953.89349	
3553	35.520	-749.22778	12.19787	-640.22455	823.33661	17.03033	-633.46478	-666.09924	1.34294	497.62976	751.22821	5.31671	584.03369	33.29998	752.79761	-951.92993	
3554	35.530	-748.34119	13.73872	-639.84534	824.36713	18.54455	-632.97656	-665.29736	0.00246	497.97278	752.23413	4.20601	584.37823	34.38855	755.01807	-949.63458	
3555	35.540	-747.23468	15.26986	-639.46637	825.18475	20.03349	-632.55347	-664.33209	-1.05901	498.28101	753.31299	2.92136	584.65662	35.46780	757.29901	-947.39429	
3556	35.550	-746.25067	16.62724	-638.87476	825.88055	21.74541	-632.33453	-663.11938	-2.29454	499.04480	754.37878	1.72953	584.91779	36.51482	759.80725	-945.08514	
3557	35.560	-745.47858	18.54551	-638.68054	827.24469	23.30325	-631.65491	-662.37860	-3.13876	499.16287	755.05475	0.27367	585.22009	37.30399	762.10034	-943.04480	
3558	35.570	-744.60791	20.10572	-638.26630	828.29987	24.61736	-631.06909	-661.35529	-4.22791	499.38992	756.20435	-0.77288	585.75006	8.13468	751.44171	-950.73859	
3559	35.580	-743.66357	21.46624	-637.76221	828.91284	26.48903	-630.96808	-660.50732	-5.40248	499.84659	757.12781	-2.07659	586.09338	38.77175	766.40540	-938.58923	
3560	35.590	-742.84619	22.92575	-637.40118	829.83038	27.72285	-630.68109	-659.65881	-6.34922	500.12628	757.70642	-3.35633	586.45648	39.87057	768.62018	-936.80096	
